<?xml version="1.0" encoding="UTF-8" standalone="no"?>
<!-- Created with Inkscape (http://www.inkscape.org/) -->

<svg
   width="210mm"
   height="297mm"
   viewBox="0 0 210 297"
   version="1.1"
   id="svg5"
   inkscape:version="1.1.1 (3bf5ae0d25, 2021-09-20)"
   sodipodi:docname="dibujo.svg"
   xmlns:inkscape="http://www.inkscape.org/namespaces/inkscape"
   xmlns:sodipodi="http://sodipodi.sourceforge.net/DTD/sodipodi-0.dtd"
   xmlns="http://www.w3.org/2000/svg"
   xmlns:svg="http://www.w3.org/2000/svg">
  <sodipodi:namedview
     id="namedview7"
     pagecolor="#505050"
     bordercolor="#eeeeee"
     borderopacity="1"
     inkscape:pageshadow="0"
     inkscape:pageopacity="0"
     inkscape:pagecheckerboard="0"
     inkscape:document-units="mm"
     showgrid="false"
     inkscape:zoom="0.71446409"
     inkscape:cx="312.12206"
     inkscape:cy="790.1027"
     inkscape:window-width="1920"
     inkscape:window-height="991"
     inkscape:window-x="-9"
     inkscape:window-y="-9"
     inkscape:window-maximized="1"
     inkscape:current-layer="layer1" />
  <defs
     id="defs2">
    <inkscape:path-effect
       effect="powerclip"
       id="path-effect2096"
       is_visible="true"
       lpeversion="1"
       inverse="true"
       flatten="false"
       hide_clip="false"
       message="Utilice la regla de relleno parimpar en el diálogo &lt;b&gt;Relleno y borde&lt;/b&gt; si el resultado no está aplanada después de convertir el recorte en trayectos." />
    <clipPath
       clipPathUnits="userSpaceOnUse"
       id="clipPath2092">
      <path
         style="display:none;fill:none;stroke:#000000;stroke-width:0.264583px;stroke-linecap:butt;stroke-linejoin:miter;stroke-opacity:1"
         d="m 157.4606,198.13883 3.51706,-0.43548 4.12428,2.88045 -3.13661,2.40657 -7.49774,1.41924 2.99301,-6.27078"
         id="path2094" />
      <path
         id="lpe_path-effect2096"
         style="fill:none;stroke:#000000;stroke-width:0.264583px;stroke-linecap:butt;stroke-linejoin:miter;stroke-opacity:1"
         class="powerclip"
         d="m 110.53097,166.75588 h 86.66445 v 106.76783 h -86.66445 z m 46.92963,31.38295 -2.99301,6.27078 7.49774,-1.41924 3.13661,-2.40657 -4.12428,-2.88045 -3.51706,0.43548" />
    </clipPath>
  </defs>
  <g
     inkscape:label="Capa 1"
     inkscape:groupmode="layer"
     id="layer1">
    <path
       style="fill:#000000;stroke-width:0.999999"
       d="m -14.252915,264.26814 c 0,-5.25184 2.035331,-18.94784 4.3813714,-29.48282 l 2.398428,-10.77009 c -1.04533,-5.09916 1.913449,-10.25878 3.477179,-15.22354 2.18142,-7.14277 9.6517,-21.56177 13.21314,-25.50389 7.3179596,-8.10008 14.2081696,-11.23001 29.8844896,-13.57524 8.09938,-1.21169 9.91195,-1.21095 14.70548,0.006 8.57545,2.17709 15.46393,6.08161 18.59892,10.54218 3.81837,5.43282 2.84733,8.89854 -3.8071,13.58827 -1.86243,1.31255 -1.98,2.03729 -1.51328,9.32851 0.29511,4.6081 0.94794,8.02699 1.56556,8.19692 9.37631,2.57984 15.76497,7.13198 15.76497,11.2331 0,2.83863 -4.31274,6.76964 -10.19186,9.28971 l -4.03926,1.73148 v 16.63667 c 0,15.58596 -0.11146,16.63668 -1.76441,16.63668 -1.64606,0 -1.80427,-1.35227 -2.35852,-20.16073 -0.80358,-27.26985 -1.17872,-30.02091 -4.25279,-31.18967 -1.33542,-0.50773 -3.58984,-0.79553 -5.00978,-0.63956 l -2.58177,0.28361 1.42728,3.79496 c 3.0347,8.06872 3.59946,10.84568 2.44125,12.00387 -1.80326,1.80327 -3.67654,-0.5334 -8.97867,-11.19991 -2.68394,-5.39935 -5.41301,-9.817 -6.06459,-9.817 -3.69221,0 -5.58185,-6.98773 -2.67557,-9.89401 1.90875,-1.90873 8.3309,-1.95118 9.89596,-0.0655 0.66822,0.80514 0.95228,2.57927 0.65275,4.07684 -0.77661,3.88304 0.13985,4.63342 6.5605,5.37131 l 5.79209,0.66566 -0.45643,-7.42993 c -0.251,-4.08647 -0.5412,-7.53292 -0.64479,-7.65881 -0.10368,-0.1259 -4.85277,0.22508 -10.55371,0.77996 -15.9192,1.54943 -34.55828,-0.4103 -34.55828,-3.63346 0,-2.18288 2.1135,-2.78519 5.51326,-1.57118 4.33429,1.54772 25.01943,1.73393 36.24558,0.3263 11.27229,-1.41342 13.83409,-4.18927 8.96939,-9.71882 -3.24324,-3.68651 -12.21539,-7.59745 -18.49024,-8.05985 -6.32247,-0.46591 -20.57191,2.06522 -25.95941,4.61119 -7.38031,3.4877 -12.71131,9.05336 -17.1643296,17.91987 -2.28142,4.54254 -4.86252,10.57456 -5.73579998,13.40446 -0.87328,2.82991 -2.16922002,6.71061 -2.87986002,8.62379 -1.18377,3.18691 -5.1777,25.96426 -6.543456,37.31734 -1.3296844,11.05332 -1.5641234,11.85927 -3.4494964,11.85927 -1.35066,0 -1.814088,-0.67287 -1.814088,-2.63393 z m 91.717918,-40.19587 c 0.69227,-0.57454 1.25869,-1.43892 1.25869,-1.92084 0,-0.92046 -9.6228,-5.7135 -10.23722,-5.09907 -0.19542,0.1955 -0.0592,2.72542 0.30264,5.62207 l 0.658,5.26664 3.3796,-1.41208 c 1.8588,-0.77666 3.94602,-1.88218 4.63833,-2.45672 z M 25.732033,183.1046 c -0.86152,-1.03806 -0.79131,-1.60192 0.31376,-2.51892 1.16144,-0.9639 1.53619,-0.88798 2.03516,0.41227 0.85112,2.21801 -0.93031,3.8158 -2.34877,2.10665 z m 33.24872,-1.35202 c 0.17571,-0.91316 0.94844,-1.66029 1.71684,-1.66029 0.76844,0 1.54103,0.74713 1.71688,1.66029 0.22446,1.16492 -0.28795,1.6603 -1.71688,1.6603 -1.42894,0 -1.94121,-0.49538 -1.71684,-1.6603 z"
       id="path890"
       sodipodi:nodetypes="cscccsccsccsccssssscsssssscscccsssssssssssscccscccsccccccccscsc"
       inkscape:export-filename="C:\Users\SUPERTRONICA\Desktop\flork_cantando.png"
       inkscape:export-xdpi="96"
       inkscape:export-ydpi="96" />
    <path
       style="fill:#000000;stroke-width:1"
       d="m 125.19158,268.02466 c -0.42606,-0.47078 -0.45665,-0.86341 -0.29383,-3.77031 0.38618,-6.89444 1.24239,-17.67089 1.63895,-20.62821 0.22833,-1.70275 0.37553,-3.2662 0.3271,-3.47435 -0.0627,-0.26959 -1.47744,0.41159 -4.91869,2.3683 -2.65687,1.51071 -5.04407,2.74675 -5.3049,2.74675 -0.60646,0 -1.10924,-0.50205 -1.10924,-1.10763 0,-0.25995 3.3096,-7.11199 7.35467,-15.22677 l 7.35467,-14.75414 1.02754,-7.29019 1.02754,-7.29018 -1.08166,-1.44107 c -3.22993,-4.30312 -4.7966,-10.06189 -4.09228,-15.04234 0.59355,-4.19708 2.52632,-6.80812 6.47645,-8.74926 4.10986,-2.01963 8.70276,-2.7996 15.13828,-2.57078 6.32237,0.22479 11.7212,1.55357 17.49426,4.30574 10.41265,4.964 16.89574,14.1902 20.59286,29.30601 2.20668,9.02215 3.17776,18.14798 4.11485,38.66998 0.41401,9.06648 0.76167,14.97765 1.08584,18.46186 0.32241,3.46523 0.21887,4.31045 -0.55821,4.55709 -0.92279,0.29288 -1.5598,-0.10499 -1.82622,-1.14063 -0.32254,-1.25381 -0.73739,-6.77176 -1.08788,-14.46998 -1.12594,-24.73071 -1.57158,-30.40214 -3.06655,-39.02604 -1.34711,-7.77095 -3.01751,-13.2688 -5.66736,-18.65313 -3.67473,-7.46682 -8.09168,-11.98 -14.90757,-15.23236 -3.34423,-1.59578 -6.70333,-2.70106 -10.55019,-3.47146 -4.44443,-0.89006 -10.57756,-0.84039 -14.68191,0.1189 -5.0727,1.18563 -7.94226,2.93477 -9.05388,5.51879 -0.83759,1.94705 -1.03408,6.06087 -0.42108,8.8162 0.8998,4.04439 3.80826,8.41109 7.42054,11.14101 2.00971,1.5188 5.31347,3.12189 7.55753,3.66715 2.17561,0.52862 6.67899,0.55093 9.28638,0.046 2.30931,0.17779 5.30201,-6.45262 2.99301,-6.27078 -2.67327,-0.60256 -3.99324,-3.55237 -2.56499,-5.73215 0.89748,-1.36973 3.20114,-1.80041 4.70969,-0.88051 0.85808,0.52326 1.69861,1.97067 1.69861,2.92505 0,0.94466 -1.02858,2.65106 -1.9289,3.20001 3.17694,3.14541 2.4743,5.10456 3.17269,6.45606 0,1.05481 -2.0259,1.94088 -5.61505,2.6992 -4.35376,0.91987 -9.8016,1.03567 -12.56211,0.26702 -2.35723,-0.65636 -5.79983,-2.30223 -7.79821,-3.72825 l -1.6633,-1.1869 -0.41714,2.70269 c -1.40513,9.10376 -3.99907,29.52671 -3.77827,29.74752 0.0555,0.0555 7.40754,-4.037 16.33779,-9.09449 8.93026,-5.0575 16.51781,-9.20077 16.86122,-9.20727 0.34975,-0.007 0.78925,0.23331 0.99922,0.54549 0.32987,0.49044 0.31845,0.62515 -0.0952,1.1227 -0.25853,0.31096 -4.22052,2.68756 -8.80443,5.28133 -4.58391,2.59376 -12.26581,6.9386 -17.07089,9.6552 l -8.73652,4.93926 -0.46504,3.5096 c -0.60518,4.56716 -1.12976,10.45459 -1.63292,18.32627 -0.48814,7.63687 -0.53434,7.94503 -1.26823,8.45906 -0.76163,0.53346 -1.07562,0.51039 -1.64705,-0.12103 z m -1.46461,-29.30242 3.64651,-2.04667 0.42205,-3.17885 c 0.60411,-4.55012 1.27214,-10.76472 1.16829,-10.86856 -0.0487,-0.0486 -2.13822,4.01311 -4.64349,9.02615 -2.50526,5.01303 -4.48411,9.11461 -4.39744,9.11461 0.0867,0 1.7985,-0.921 3.80408,-2.04668 z m 32.99015,-42.81798 c 0.22052,-0.57466 -0.33931,-1.11509 -0.74003,-0.71437 -0.33867,0.33867 -0.12886,1.12903 0.29972,1.12903 0.15465,0 0.35279,-0.18659 0.44031,-0.41466 z m 2.7226,-1.55515 c 0.50554,-0.60913 0.23535,-1.58917 -0.4655,-1.68852 -1.17026,-0.1659 -1.76059,0.85319 -0.95872,1.65506 0.51824,0.51824 1.01225,0.52985 1.42422,0.0335 z m -23.91349,-11.65625 c 0.64,-1.23055 1.44738,-1.96654 2.50488,-2.28338 0.81506,-0.24419 1.15998,-0.2053 2.17987,0.24585 2.75976,1.22077 2.85895,4.80623 0.17203,6.21857 -1.69791,0.89248 -4.1202,0.0148 -4.89169,-1.77234 l -0.3545,-0.8212 c -0.26491,-0.47612 0.1358,-1.10527 0.38941,-1.5875 z m 2.49433,2.34466 c 0,-0.52453 -0.79914,-0.77964 -1.0699,-0.34155 -0.28479,0.46079 0.19202,1.0553 0.69237,0.86329 0.20764,-0.0797 0.37753,-0.31446 0.37753,-0.52174 z m 2.74981,-1.57253 c 0.43026,-1.12123 -0.41804,-1.97349 -1.4269,-1.43357 -0.50698,0.27133 -0.7244,1.30407 -0.35277,1.6757 0.34686,0.34686 1.62013,0.17363 1.77967,-0.24213 z"
       id="path1153"
       sodipodi:nodetypes="sssssssscccssssssssssssssssssssccsssccssscssscsssscsssssscscsssssssssssscssssccssssssss"
       clip-path="url(#clipPath2092)"
       inkscape:path-effect="#path-effect2096"
       inkscape:original-d="m 125.19158,268.02466 c -0.42606,-0.47078 -0.45665,-0.86341 -0.29383,-3.77031 0.38618,-6.89444 1.24239,-17.67089 1.63895,-20.62821 0.22833,-1.70275 0.37553,-3.2662 0.3271,-3.47435 -0.0627,-0.26959 -1.47744,0.41159 -4.91869,2.3683 -2.65687,1.51071 -5.04407,2.74675 -5.3049,2.74675 -0.60646,0 -1.10924,-0.50205 -1.10924,-1.10763 0,-0.25995 3.3096,-7.11199 7.35467,-15.22677 l 7.35467,-14.75414 1.02754,-7.29019 1.02754,-7.29018 -1.08166,-1.44107 c -3.22993,-4.30312 -4.7966,-10.06189 -4.09228,-15.04234 0.59355,-4.19708 2.52632,-6.80812 6.47645,-8.74926 4.10986,-2.01963 8.70276,-2.7996 15.13828,-2.57078 6.32237,0.22479 11.7212,1.55357 17.49426,4.30574 10.41265,4.964 16.89574,14.1902 20.59286,29.30601 2.20668,9.02215 3.17776,18.14798 4.11485,38.66998 0.41401,9.06648 0.76167,14.97765 1.08584,18.46186 0.32241,3.46523 0.21887,4.31045 -0.55821,4.55709 -0.92279,0.29288 -1.5598,-0.10499 -1.82622,-1.14063 -0.32254,-1.25381 -0.73739,-6.77176 -1.08788,-14.46998 -1.12594,-24.73071 -1.57158,-30.40214 -3.06655,-39.02604 -1.34711,-7.77095 -3.01751,-13.2688 -5.66736,-18.65313 -3.67473,-7.46682 -8.09168,-11.98 -14.90757,-15.23236 -3.34423,-1.59578 -6.70333,-2.70106 -10.55019,-3.47146 -4.44443,-0.89006 -10.57756,-0.84039 -14.68191,0.1189 -5.0727,1.18563 -7.94226,2.93477 -9.05388,5.51879 -0.83759,1.94705 -1.03408,6.06087 -0.42108,8.8162 0.8998,4.04439 3.80826,8.41109 7.42054,11.14101 2.00971,1.5188 5.31347,3.12189 7.55753,3.66715 2.17561,0.52862 6.67899,0.55093 9.28638,0.046 2.30931,0.17779 5.30201,-6.45262 2.99301,-6.27078 -2.67327,-0.60256 -3.99324,-3.55237 -2.56499,-5.73215 0.89748,-1.36973 3.20114,-1.80041 4.70969,-0.88051 0.85808,0.52326 1.69861,1.97067 1.69861,2.92505 0,0.94466 -1.02858,2.65106 -1.9289,3.20001 3.17694,3.14541 2.4743,5.10456 3.17269,6.45606 0,1.05481 -2.0259,1.94088 -5.61505,2.6992 -4.35376,0.91987 -9.8016,1.03567 -12.56211,0.26702 -2.35723,-0.65636 -5.79983,-2.30223 -7.79821,-3.72825 l -1.6633,-1.1869 -0.41714,2.70269 c -1.40513,9.10376 -3.99907,29.52671 -3.77827,29.74752 0.0555,0.0555 7.40754,-4.037 16.33779,-9.09449 8.93026,-5.0575 16.51781,-9.20077 16.86122,-9.20727 0.34975,-0.007 0.78925,0.23331 0.99922,0.54549 0.32987,0.49044 0.31845,0.62515 -0.0952,1.1227 -0.25853,0.31096 -4.22052,2.68756 -8.80443,5.28133 -4.58391,2.59376 -12.26581,6.9386 -17.07089,9.6552 l -8.73652,4.93926 -0.46504,3.5096 c -0.60518,4.56716 -1.12976,10.45459 -1.63292,18.32627 -0.48814,7.63687 -0.53434,7.94503 -1.26823,8.45906 -0.76163,0.53346 -1.07562,0.51039 -1.64705,-0.12103 z m -1.46461,-29.30242 3.64651,-2.04667 0.42205,-3.17885 c 0.60411,-4.55012 1.27214,-10.76472 1.16829,-10.86856 -0.0487,-0.0486 -2.13822,4.01311 -4.64349,9.02615 -2.50526,5.01303 -4.48411,9.11461 -4.39744,9.11461 0.0867,0 1.7985,-0.921 3.80408,-2.04668 z m 32.99015,-42.81798 c 0.22052,-0.57466 -0.33931,-1.11509 -0.74003,-0.71437 -0.33867,0.33867 -0.12886,1.12903 0.29972,1.12903 0.15465,0 0.35279,-0.18659 0.44031,-0.41466 z m 2.7226,-1.55515 c 0.50554,-0.60913 0.23535,-1.58917 -0.4655,-1.68852 -1.17026,-0.1659 -1.76059,0.85319 -0.95872,1.65506 0.51824,0.51824 1.01225,0.52985 1.42422,0.0335 z m -23.91349,-11.65625 c 0.64,-1.23055 1.44738,-1.96654 2.50488,-2.28338 0.81506,-0.24419 1.15998,-0.2053 2.17987,0.24585 2.75976,1.22077 2.85895,4.80623 0.17203,6.21857 -1.69791,0.89248 -4.1202,0.0148 -4.89169,-1.77234 l -0.3545,-0.8212 c -0.26491,-0.47612 0.1358,-1.10527 0.38941,-1.5875 z m 2.49433,2.34466 c 0,-0.52453 -0.79914,-0.77964 -1.0699,-0.34155 -0.28479,0.46079 0.19202,1.0553 0.69237,0.86329 0.20764,-0.0797 0.37753,-0.31446 0.37753,-0.52174 z m 2.74981,-1.57253 c 0.43026,-1.12123 -0.41804,-1.97349 -1.4269,-1.43357 -0.50698,0.27133 -0.7244,1.30407 -0.35277,1.6757 0.34686,0.34686 1.62013,0.17363 1.77967,-0.24213 z"
       inkscape:export-filename="C:\Users\SUPERTRONICA\Desktop\flork_pregunta.png"
       inkscape:export-xdpi="96"
       inkscape:export-ydpi="96" />
  </g>
</svg>
