<?xml version="1.0" encoding="UTF-8" standalone="no"?>

<svg
   width="35.337486mm"
   height="22.327921mm"
   viewBox="0 0 35.337486 22.327921"
   version="1.1"
   id="svg937"
   inkscape:version="1.1.1 (3bf5ae0d25, 2021-09-20)"
   sodipodi:docname="securelab_logo.svg"
   xmlns:inkscape="http://www.inkscape.org/namespaces/inkscape"
   xmlns:sodipodi="http://sodipodi.sourceforge.net/DTD/sodipodi-0.dtd"
   xmlns="http://www.w3.org/2000/svg"
   xmlns:svg="http://www.w3.org/2000/svg">
  <sodipodi:namedview
     id="namedview939"
     pagecolor="#505050"
     bordercolor="#eeeeee"
     borderopacity="1"
     inkscape:pageshadow="0"
     inkscape:pageopacity="0"
     inkscape:pagecheckerboard="0"
     inkscape:document-units="mm"
     showgrid="false"
     fit-margin-top="0"
     fit-margin-left="0"
     fit-margin-right="0"
     fit-margin-bottom="0"
     inkscape:zoom="0.71446409"
     inkscape:cx="-84.678854"
     inkscape:cy="11.897029"
     inkscape:window-width="1920"
     inkscape:window-height="991"
     inkscape:window-x="-9"
     inkscape:window-y="-9"
     inkscape:window-maximized="1"
     inkscape:current-layer="layer1" />
  <defs
     id="defs934" />
  <g
     inkscape:label="Capa 1"
     inkscape:groupmode="layer"
     id="layer1"
     transform="translate(-111.94472,-145.48318)">
    <path
       style="fill:#ffffff;stroke-width:0.141591"
       d="m 131.34136,167.57884 c -0.77916,-0.38403 -1.0932,-0.9687 -1.09036,-2.02997 0.001,-0.50619 0.30609,-3.91498 0.67718,-7.5751 0.73451,-7.24441 0.76757,-7.40126 1.66154,-7.8807 1.01673,-0.54528 2.21249,-0.15068 2.72805,0.90025 0.24984,0.50929 0.2445,0.62809 -0.25626,5.70763 -0.28128,2.85313 -0.49167,5.29774 -0.46754,5.43248 0.0392,0.2186 0.585,0.11941 5.07034,-0.92134 2.76455,-0.64147 5.23608,-1.17057 5.49227,-1.17578 1.53644,-0.0312 2.57177,1.68906 1.93447,3.21433 -0.25966,0.62146 -0.69615,1.11612 -1.22987,1.3938 -0.4477,0.23292 -13.15677,3.17149 -13.69556,3.16665 -0.19777,-0.002 -0.56869,-0.10628 -0.82426,-0.23225 z m -18.29829,-2.42982 c -0.69703,-0.36488 -1.16719,-1.30541 -1.09009,-2.1807 0.0686,-0.7793 0.61639,-1.69571 1.24034,-2.07516 0.23093,-0.14044 2.31507,-0.68792 4.63142,-1.21664 2.31635,-0.52871 4.22887,-0.97554 4.25004,-0.99294 0.0212,-0.0174 -1.58024,-1.00056 -3.55869,-2.18479 -3.44396,-2.06143 -4.93342,-3.16285 -5.31663,-3.93155 -0.0848,-0.17009 -0.15358,-0.64796 -0.15285,-1.06193 0.002,-1.01544 0.60837,-2.0909 1.44916,-2.56936 0.86264,-0.4909 13.01618,-3.54594 13.7271,-3.45059 1.04356,0.13997 1.94399,1.20636 1.95176,2.31149 0.008,1.07101 -0.90598,2.51032 -1.82226,2.87112 -0.2031,0.08 -1.89846,0.53424 -3.76746,1.00948 -1.86899,0.47524 -3.64692,0.92862 -3.95096,1.0075 l -0.55278,0.14344 3.63391,2.16669 c 3.6499,2.17623 4.85981,3.10571 5.19693,3.99241 0.38725,1.01854 -0.0861,2.50461 -0.98786,3.10137 -0.33775,0.22351 -1.28769,0.5212 -2.70846,0.84877 -7.86548,1.81344 -10.85167,2.46965 -11.23852,2.46965 -0.24241,0 -0.66275,-0.11622 -0.9341,-0.25826 z"
       id="path887" />
  </g>
</svg>
