<?xml version="1.0" encoding="UTF-8" standalone="no"?>

<svg
   width="167.34918mm"
   height="101.2968mm"
   viewBox="0 0 167.34918 101.2968"
   version="1.1"
   id="svg29275"
   inkscape:version="1.1.1 (3bf5ae0d25, 2021-09-20)"
   sodipodi:docname="ui.svg"
   xmlns:inkscape="http://www.inkscape.org/namespaces/inkscape"
   xmlns:sodipodi="http://sodipodi.sourceforge.net/DTD/sodipodi-0.dtd"
   xmlns="http://www.w3.org/2000/svg"
   xmlns:svg="http://www.w3.org/2000/svg">
  <sodipodi:namedview
     id="namedview29277"
     pagecolor="#505050"
     bordercolor="#eeeeee"
     borderopacity="1"
     inkscape:pageshadow="0"
     inkscape:pageopacity="0"
     inkscape:pagecheckerboard="0"
     inkscape:document-units="mm"
     showgrid="false"
     fit-margin-top="0"
     fit-margin-left="0"
     fit-margin-right="0"
     fit-margin-bottom="0"
     inkscape:zoom="1.4289282"
     inkscape:cx="325.41874"
     inkscape:cy="203.99906"
     inkscape:window-width="1920"
     inkscape:window-height="991"
     inkscape:window-x="-9"
     inkscape:window-y="-9"
     inkscape:window-maximized="1"
     inkscape:current-layer="layer1" />
  <defs
     id="defs29272" />
  <g
     inkscape:label="Capa 1"
     inkscape:groupmode="layer"
     id="layer1"
     transform="translate(-71.491241,-70.077286)">
    <rect
       style="fill:#303030;fill-opacity:0.823853;stroke:none;stroke-width:0.585108;stroke-linecap:round;stroke-linejoin:round;paint-order:stroke fill markers"
       id="rect2392"
       width="167.34918"
       height="101.2968"
       x="71.491241"
       y="70.077286"
       ry="3.8661482"
       inkscape:export-filename="C:\Users\SUPERTRONICA\Desktop\ui.png"
       inkscape:export-xdpi="114.642"
       inkscape:export-ydpi="114.642"
       inkscape:label="background" />
    <rect
       style="fill:#b3b3b3;fill-opacity:1;stroke:none;stroke-width:0.304325;stroke-linecap:round;stroke-linejoin:round;stroke-miterlimit:4;stroke-dasharray:none;stroke-opacity:1;paint-order:stroke fill markers"
       id="rect2394"
       width="44.919579"
       height="36.584499"
       x="96.410187"
       y="92.001328"
       ry="1.4550664"
       inkscape:export-filename="C:\Users\SUPERTRONICA\Desktop\ui.png"
       inkscape:export-xdpi="114.642"
       inkscape:export-ydpi="114.642" />
    <path
       style="fill:#808080;fill-opacity:1;stroke:none;stroke-width:0.255756px;stroke-linecap:butt;stroke-linejoin:miter;stroke-opacity:1"
       d="m 96.96821,128.30766 c -0.25255,-0.26187 -0.55804,-0.62065 -0.55804,-1.11604 v -14.7555 l 12.63741,-10.08793 9.52695,10.42419 12.57558,-8.07034 10.27847,9.53094 -0.0988,14.35286 c 0,0 -27.80103,-0.01 -42.28615,0.0201 -0.78485,-0.0186 -1.4692,0.10983 -2.07543,-0.29828 z"
       id="path2428"
       sodipodi:nodetypes="cscccccccc" />
    <path
       id="path3218"
       style="fill:#595959;fill-opacity:1;stroke:#595959;stroke-width:0.999999px;stroke-linecap:butt;stroke-linejoin:miter;stroke-opacity:1"
       d="m 587.03906,10.978516 a 6.2040403,6.2040403 0 0 0 -6.20508,6.205078 6.2040403,6.2040403 0 0 0 6.20508,6.203125 6.2040403,6.2040403 0 0 0 6.20313,-6.203125 6.2040403,6.2040403 0 0 0 -6.20313,-6.205078 z m 18.61133,0 a 6.2040404,6.2040404 0 0 0 -6.20312,6.205078 6.2040404,6.2040404 0 0 0 6.20312,6.203125 6.2040404,6.2040404 0 0 0 6.20313,-6.203125 6.2040404,6.2040404 0 0 0 -6.20313,-6.205078 z M 3.0605469,33.501953 H 630.53125 Z"
       transform="matrix(0.26458333,0,0,0.26458333,71.491241,70.077286)"
       inkscape:label="topbar" />
    <path
       id="rect2396"
       style="fill:#b3b3b3;fill-opacity:1;stroke:none;stroke-width:1.0665;stroke-linecap:round;stroke-linejoin:round;stroke-miterlimit:4;stroke-dasharray:none;stroke-opacity:1;paint-order:stroke fill markers"
       d="m 293.32812,82.863281 c -1.51764,0 -2.73828,1.220638 -2.73828,2.738281 v 12.572266 c 0,1.517643 1.22064,2.738282 2.73828,2.738282 h 135.66993 c 1.51764,0 2.74023,-1.220639 2.74023,-2.738282 V 85.601562 c 0,-1.517643 -1.22259,-2.738281 -2.74023,-2.738281 z m 0,24.984379 c -1.51764,0 -2.73828,1.22259 -2.73828,2.74023 v 12.57031 c 0,1.51765 1.22064,2.74024 2.73828,2.74024 h 237.71094 c 1.51765,0 2.74024,-1.22259 2.74024,-2.74024 v -12.57031 c 0,-1.51764 -1.22259,-2.74023 -2.74024,-2.74023 z"
       transform="matrix(0.26458333,0,0,0.26458333,71.491241,70.077286)"
       inkscape:label="title" />
    <path
       id="rect2404"
       style="fill:#ffffff;fill-opacity:0.212844;stroke:none;stroke-width:1.1502;stroke-linecap:round;stroke-linejoin:round;stroke-miterlimit:4;stroke-dasharray:none;stroke-opacity:1;paint-order:stroke fill markers"
       d="m 293.58398,157.16992 c -1.6585,0 -2.99414,1.33563 -2.99414,2.99414 v 1.70899 c 0,1.65851 1.33564,2.99414 2.99414,2.99414 h 240.30274 c 1.65851,0 2.99414,-1.33563 2.99414,-2.99414 v -1.70899 c 0,-1.65851 -1.33563,-2.99414 -2.99414,-2.99414 z m 0,13.27735 c -1.6585,0 -2.99414,1.33563 -2.99414,2.99414 v 1.71093 c 0,1.65851 1.33564,2.99414 2.99414,2.99414 h 240.30274 c 1.65851,0 2.99414,-1.33563 2.99414,-2.99414 v -1.71093 c 0,-1.65851 -1.33563,-2.99414 -2.99414,-2.99414 z m 0,13.27929 c -1.6585,0 -2.99414,1.33563 -2.99414,2.99414 v 1.71094 c 0,1.65851 1.33564,2.99219 2.99414,2.99219 h 240.30274 c 1.65851,0 2.99414,-1.33368 2.99414,-2.99219 v -1.71094 c 0,-1.65851 -1.33563,-2.99414 -2.99414,-2.99414 z m 0,13.27735 c -1.6585,0 -2.99414,1.33563 -2.99414,2.99414 v 1.71093 c 0,1.65851 1.33564,2.99414 2.99414,2.99414 h 240.30274 c 1.65851,0 2.99414,-1.33563 2.99414,-2.99414 v -1.71093 c 0,-1.65851 -1.33563,-2.99414 -2.99414,-2.99414 z m 0,13.27929 c -1.6585,0 -2.99414,1.33563 -2.99414,2.99414 v 1.71094 c 0,1.65851 1.33564,2.99219 2.99414,2.99219 h 240.30274 c 1.65851,0 2.99414,-1.33368 2.99414,-2.99219 v -1.71094 c 0,-1.65851 -1.33563,-2.99414 -2.99414,-2.99414 z"
       transform="matrix(0.26458333,0,0,0.26458333,71.491241,70.077286)"
       inkscape:label="description" />
    <g
       id="g35431"
       transform="translate(80.652493)"
       inkscape:label="card3">
      <rect
         style="fill:#b3b3b3;fill-opacity:1;stroke:none;stroke-width:0.481687;stroke-linecap:round;stroke-linejoin:round;paint-order:stroke fill markers"
         id="rect35427"
         width="36.352348"
         height="18.259254"
         x="96.441269"
         y="139.48448"
         ry="2.4497716" />
      <path
         id="path35429"
         style="fill:#808080;fill-opacity:1;stroke:none;stroke-width:1.06164;stroke-linecap:round;stroke-linejoin:round;paint-order:stroke fill markers"
         d="m 123.37695,274.36133 a 12.034572,12.034572 0 0 0 -12.03515,12.03515 12.034572,12.034572 0 0 0 12.03515,12.03321 12.034572,12.034572 0 0 0 12.03516,-12.03321 12.034572,12.034572 0 0 0 -12.03516,-12.03515 z M 143.75781,279 c -0.81943,0 -1.48047,0.65908 -1.48047,1.47852 v 3.38086 c 0,0.81942 0.66104,1.48046 1.48047,1.48046 h 38.45703 c 0.81944,0 1.47852,-0.66104 1.47852,-1.48046 v -3.38086 c 0,-0.81944 -0.65908,-1.47852 -1.47852,-1.47852 z m 0,8.45117 c -0.81943,0 -1.48047,0.66104 -1.48047,1.48047 v 3.38086 c 0,0.81944 0.66104,1.47852 1.48047,1.47852 h 70.15235 c 0.81943,0 1.47851,-0.65908 1.47851,-1.47852 v -3.38086 c 0,-0.81943 -0.65908,-1.48047 -1.47851,-1.48047 z m -28.7539,18.625 c -0.8403,0 -1.51758,0.67533 -1.51758,1.51563 v 0.86718 c 0,0.8403 0.67728,1.51758 1.51758,1.51758 h 98.17187 c 0.8403,0 1.51758,-0.67728 1.51758,-1.51758 v -0.86718 c 0,-0.8403 -0.67728,-1.51563 -1.51758,-1.51563 z m 0,6.72461 c -0.8403,0 -1.51758,0.67533 -1.51758,1.51563 v 0.86718 c 0,0.8403 0.67728,1.51758 1.51758,1.51758 h 98.17187 c 0.8403,0 1.51758,-0.67728 1.51758,-1.51758 v -0.86718 c 0,-0.8403 -0.67728,-1.51563 -1.51758,-1.51563 z"
         transform="matrix(0.26458333,0,0,0.26458333,71.491241,70.077286)" />
    </g>
    <g
       id="g35425"
       transform="translate(40.326244)"
       inkscape:label="card2">
      <rect
         style="fill:#b3b3b3;fill-opacity:1;stroke:none;stroke-width:0.481687;stroke-linecap:round;stroke-linejoin:round;paint-order:stroke fill markers"
         id="rect35421"
         width="36.352348"
         height="18.259254"
         x="96.441269"
         y="139.48448"
         ry="2.4497716" />
      <path
         id="path35423"
         style="fill:#808080;fill-opacity:1;stroke:none;stroke-width:1.06164;stroke-linecap:round;stroke-linejoin:round;paint-order:stroke fill markers"
         d="m 123.37695,274.36133 a 12.034572,12.034572 0 0 0 -12.03515,12.03515 12.034572,12.034572 0 0 0 12.03515,12.03321 12.034572,12.034572 0 0 0 12.03516,-12.03321 12.034572,12.034572 0 0 0 -12.03516,-12.03515 z M 143.75781,279 c -0.81943,0 -1.48047,0.65908 -1.48047,1.47852 v 3.38086 c 0,0.81942 0.66104,1.48046 1.48047,1.48046 h 38.45703 c 0.81944,0 1.47852,-0.66104 1.47852,-1.48046 v -3.38086 c 0,-0.81944 -0.65908,-1.47852 -1.47852,-1.47852 z m 0,8.45117 c -0.81943,0 -1.48047,0.66104 -1.48047,1.48047 v 3.38086 c 0,0.81944 0.66104,1.47852 1.48047,1.47852 h 70.15235 c 0.81943,0 1.47851,-0.65908 1.47851,-1.47852 v -3.38086 c 0,-0.81943 -0.65908,-1.48047 -1.47851,-1.48047 z m -28.7539,18.625 c -0.8403,0 -1.51758,0.67533 -1.51758,1.51563 v 0.86718 c 0,0.8403 0.67728,1.51758 1.51758,1.51758 h 98.17187 c 0.8403,0 1.51758,-0.67728 1.51758,-1.51758 v -0.86718 c 0,-0.8403 -0.67728,-1.51563 -1.51758,-1.51563 z m 0,6.72461 c -0.8403,0 -1.51758,0.67533 -1.51758,1.51563 v 0.86718 c 0,0.8403 0.67728,1.51758 1.51758,1.51758 h 98.17187 c 0.8403,0 1.51758,-0.67728 1.51758,-1.51758 v -0.86718 c 0,-0.8403 -0.67728,-1.51563 -1.51758,-1.51563 z"
         transform="matrix(0.26458333,0,0,0.26458333,71.491241,70.077286)" />
    </g>
    <g
       id="g35419"
       inkscape:label="card1">
      <rect
         style="fill:#b3b3b3;fill-opacity:1;stroke:none;stroke-width:0.481687;stroke-linecap:round;stroke-linejoin:round;paint-order:stroke fill markers"
         id="rect2074"
         width="36.352348"
         height="18.259254"
         x="96.441269"
         y="139.48448"
         ry="2.4497716" />
      <path
         id="path2098"
         style="fill:#808080;fill-opacity:1;stroke:none;stroke-width:1.06164;stroke-linecap:round;stroke-linejoin:round;paint-order:stroke fill markers"
         d="m 123.37695,274.36133 a 12.034572,12.034572 0 0 0 -12.03515,12.03515 12.034572,12.034572 0 0 0 12.03515,12.03321 12.034572,12.034572 0 0 0 12.03516,-12.03321 12.034572,12.034572 0 0 0 -12.03516,-12.03515 z M 143.75781,279 c -0.81943,0 -1.48047,0.65908 -1.48047,1.47852 v 3.38086 c 0,0.81942 0.66104,1.48046 1.48047,1.48046 h 38.45703 c 0.81944,0 1.47852,-0.66104 1.47852,-1.48046 v -3.38086 c 0,-0.81944 -0.65908,-1.47852 -1.47852,-1.47852 z m 0,8.45117 c -0.81943,0 -1.48047,0.66104 -1.48047,1.48047 v 3.38086 c 0,0.81944 0.66104,1.47852 1.48047,1.47852 h 70.15235 c 0.81943,0 1.47851,-0.65908 1.47851,-1.47852 v -3.38086 c 0,-0.81943 -0.65908,-1.48047 -1.47851,-1.48047 z m -28.7539,18.625 c -0.8403,0 -1.51758,0.67533 -1.51758,1.51563 v 0.86718 c 0,0.8403 0.67728,1.51758 1.51758,1.51758 h 98.17187 c 0.8403,0 1.51758,-0.67728 1.51758,-1.51758 v -0.86718 c 0,-0.8403 -0.67728,-1.51563 -1.51758,-1.51563 z m 0,6.72461 c -0.8403,0 -1.51758,0.67533 -1.51758,1.51563 v 0.86718 c 0,0.8403 0.67728,1.51758 1.51758,1.51758 h 98.17187 c 0.8403,0 1.51758,-0.67728 1.51758,-1.51758 v -0.86718 c 0,-0.8403 -0.67728,-1.51563 -1.51758,-1.51563 z"
         transform="matrix(0.26458333,0,0,0.26458333,71.491241,70.077286)" />
    </g>
  </g>
</svg>
