<svg width="25px" height="25px" version="1.1" viewBox="0 0 22 22" xmlns="http://www.w3.org/2000/svg">
<g transform="translate(-17.825 -63.139)">
<path d="m17.832 85.095c0.01286-0.03368 0.36538-1.305 0.78338-2.8251l0.76-2.7638-0.32137-0.65624c-0.65947-1.3467-0.98432-2.5403-1.1035-4.0548-0.10826-1.3756 0.08373-2.9275 0.52585-4.2506 0.50698-1.5172 1.3092-2.8371 2.4205-3.9826 1.7891-1.8441 3.9571-2.9456 6.5875-3.3469 0.65946-0.1006 2.2669-0.10108 2.9368-8.13e-4 1.9466 0.29119 3.5913 0.97624 5.1309 2.1371 0.42084 0.31733 1.0706 0.88788 1.0992 0.9652 0.0095 0.02572 0.1643 0.20276 0.34396 0.39344 0.87447 0.92805 1.7024 2.2828 2.1704 3.5515 1.1654 3.1591 0.7678 6.8594-1.0344 9.6273-0.59032 0.90667-1.4776 1.9021-2.2609 2.5364-3.3972 2.7511-7.9869 3.296-11.82 1.4033l-0.41579-0.20532-2.8518 0.74352c-1.5685 0.40894-2.8794 0.75386-2.9131 0.7665-0.04003 0.01502-0.05312 0.0018-0.03783-0.03826zm12.146-2.0842c3.5404-0.45771 6.4921-2.8704 7.5776-6.1937 0.3096-0.94793 0.43249-1.7424 0.43249-2.7963 0-1.4736-0.27739-2.6952-0.90023-3.9646-0.49194-1.0026-0.99523-1.7046-1.7841-2.4883-1.4612-1.4517-3.3072-2.3449-5.334-2.5807-3.91-0.45495-7.5429 1.5346-9.2682 5.0758-1.3559 2.783-1.2199 5.9496 0.36898 8.5891 0.16156 0.26839 0.29173 0.51703 0.28927 0.55252-0.0025 0.03549-0.20055 0.77735-0.4402 1.6486-0.23965 0.87122-0.42973 1.5986-0.42241 1.6163 0.0073 0.01773 0.77687-0.16696 1.7101-0.41043l1.6968-0.44268 0.32517 0.19074c1.0446 0.61277 2.2777 1.0405 3.4662 1.2025 0.5865 0.07991 1.6693 0.08048 2.2825 0.0011zm0.89435-3.8907c-0.66989-0.17769-1.9529-0.699-2.6012-1.0569-1.1381-0.62831-2.1798-1.5926-3.4624-3.2052-0.76412-0.96068-1.2125-1.7806-1.3989-2.5579-0.10212-0.42588-0.11011-1.1029-0.01728-1.4644 0.19859-0.77325 0.85802-1.7018 1.2947-1.8231 0.09115-0.02533 0.37342-0.04615 0.62726-0.04629 0.44325-1.62e-4 0.4667 0.0044 0.59236 0.11806 0.18534 0.16758 1.178 2.5429 1.1383 2.7238-0.03542 0.16134-0.28976 0.54707-0.6159 0.93402-0.1451 0.17217-0.2757 0.36038-0.29022 0.41826-0.03318 0.13228 0.1659 0.49828 0.55531 1.0209 0.80583 1.0815 1.6003 1.7384 2.8113 2.3245 0.38373 0.18572 0.60022 0.26612 0.71679 0.26622 0.19278 1.63e-4 0.24492-0.05052 0.91648-0.89056 0.36866-0.46115 0.41652-0.50548 0.54572-0.50548 0.20913 0 0.51969 0.12121 1.3668 0.53344 0.41813 0.20348 0.79541 0.37042 0.83841 0.37098 0.043 4.87e-4 0.17492 0.0538 0.29316 0.11832l0.21498 0.11732 0.01264 0.33801c0.01594 0.42607-0.1092 0.94696-0.29833 1.2419-0.07491 0.11681-0.2541 0.3088-0.39821 0.42665-0.28726 0.23493-0.92052 0.55957-1.2377 0.6345-0.3273 0.07732-1.2537 0.05601-1.604-0.0369z"/>
</g>
</svg>
